<?xml version="1.0" encoding="UTF-8"?>
<svg viewBox="0 0 270 233" xmlns="http://www.w3.org/2000/svg">
 <g transform="translate(-33 -313.68)">
  <path d="m73.75 427.59 2-15.75-1.25-19.25c-5.6757 7.3319-12.078 10.063-19.75 4.75-6.7098-1.7682-7.0193-6.4458-6.5-11.5l4-10.5 8.75-8.5 9.75-4.25 13.75-7.25 10.75-1.25c5.7712-0.6457 2.9198-4.6078 0.25-8.5l-2-3.25 0.75-16.25c5.4163-5.6098 9.7848-12.333 25.5-7 6.1162 1.23 6.5034 7.5525 6.75 14l-2 14.25s-3.75 3-5.5 7.25l-1.75 4.25 3.25 3.5c15.128 5.3244 19.585 12.783 21.5 20.75 6.1667-6.8243 12.333-6.7677 18.5-5 8.9539-0.67589 13.444-2.2444 15.75-4.25l4.75 1.5-3.75 17.5-15.25-1.25c-6.3722 6.0186-13.46 10.844-25.75 7-6.2986-3.6891-13.238-6.4519-13.75-18.5l-3.5 11.25-8.75 37c-13.437 6.7342-25.729 7.1757-36.5-0.75z" fill="#e0c17e" fill-rule="evenodd"/>
  <path d="m195.33 448c7.1111 3.1111 13.822 7.4884 21.333 8.7619 12.063 2.0452 29.193-4.615 31.539-18.752 1.026-16.515-15.402-27.771-15.06-44.248 0.64795-11.742 11.086-19.76 18.384-27.954 9.3038-6.6084 21.902-3.8654 32.47-2.3795 8.2402-0.07261 10.679 8.3408 0.05852 6.8018-8.7724 4.8408-20.559-6.5512-26.708 1.3553-5.4603 6.72-13.611 11.786-16.428 20.185-2.6613 11.702 5.6707 20.785 10.631 30.378 6.1936 8.0942 6.6977 20.01-0.22106 27.946-8.1559 10.992-21.812 15.793-35.151 13.517-5.5075-0.55084-11.018-1.532-14.659-6.1838" fill="#3d1d1d" fill-rule="evenodd" stroke="#000" stroke-width="3"/>
  <path d="m109.75 429.09 8.5 8.75 18 3.5 14.5 0.5 10.5 1.75c9.0833-3.4954 18.167-6.04 27.25-0.25l9.5 6.5 7.75 16.75 2.5 8-5.25 14.25 0.5 3.75 12.25 9.75 11.25-2 1.75 3.25 1 6 5.75 6 11.75 9.5 2.5 3.5-2.5 8.5-3 4.5-7.5 2.75-4.75-1.25-0.75-3 4.5-6.25 1.25-6.25-4-8.25-9-6.25-9.75-4-7-1.25 11.457 9.3964 11.043 10.604-1.5 6-5 5.5h-3.75l-1.75-4 0.5-10-7.8857-7.1706-11.667-4.2426-6.364-2.4749h-9.1924l-12.374-4.9498-9.8995-9.8995-5.6568-8.8388c-23.042 7.0968-40.111 7.0263-53.74 2.8284l-2.1213 2.1213-27.931-2.4749-4.9498 8.8388-0.35355 16.263 1.0607 3.8891-0.35355 3.5355 7.0711 6.7175 1.7678 4.5962-2.1213 3.8891h-5.6568l-6.0104-2.4749-2.4749-6.7175v-2.8284l-3.5355-6.0104-0.70711-4.2426 1.7678-4.9498-1.7678-21.92 3.182-5.6568 4.9498-2.1213-15.91-16.617-0.70711 16.617-3.8891 5.6568 5.3033 1.7678 1.7678 3.182-1.7678 7.0711-3.8891 1.4142-3.8891-2.1213-1.4142-7.0711-3.5355-6.7175 4.2426-18.738 2.4749-9.5459 3.182-2.8284 6.364 3.5355 8.1317 6.0104 5.6568 0.35356c-4.2263-10.352-0.18214-19.522 1.7678-28.991l5.6568-7.0711 11.314 6.0104 11.314 0.35355 14.291-4.2266z" fill="#3d1d1d" fill-rule="evenodd"/>
  <path d="m120.67 384.43c-3.3333 15-7.3333 30.333-10.667 45.333 6.7769 10.599 22.617 12.045 31.681 11.431s13.546 1.9352 20.319 2.9027c11.667-6.2577 27.469-3.3756 35.948 6.5637 3.1576 7.3301 7.8025 12.762 9.6301 20.645s-6.725 18.028-4.0684 21.806c4.419 2.9431 8.5404 7.5449 13.146 9.446 5.3403-1.35 12.384-6.3792 12.571 3.1902 1.7123 15.116 26.013 13.476 18.711 29.716-1.3733 9.2987-23.645 12.996-14.5 0.72681 10.262-10.987-4.0385-21.652-14.46-24.276-9.6541-6.8623-20.978-3.9108-31.849-6.8693-16.407-3.9528-24.974-20.224-27.796-35.616" fill="none" stroke="#000" stroke-width="3"/>
  <path d="m163.33 484.76c-19.475 7.9499-41.385 11.566-62 6" fill="none" stroke="#000" stroke-width="3"/>
  <path d="m207.33 507.43c6.1985 6.3562 13.278 10.669 18.912 17.48 10.483 7.6948-8.2774 23.813-8.2451 9.1863 3.7928-13.867-13.424-19.149-23.794-21.813-11.569-0.80934-24.213-3.2401-31.539-13.415-2.9209-3.4797-5.309-7.3788-7.333-11.438" fill="none" stroke="#000" stroke-width="3"/>
  <path d="m115.33 458.76c1.2332 10.368-3.1094 18.72-11.319 23.957-2.049 2.9057-1.0972 10.4-5.4024 9.8558l-27.279-2.4799c-6.6947 8.64-8.1706 20.159-3.8338 29.335-2.5743 4.6806 3.8933 6.6438 6.265 9.838 7.4716 16.155-18.594 8.7586-13.334-3.5064-2.36-2.8665-8.6396-7.6673-3.0972-13-1.2652-9.5805-3.0038-19.116-1.195-26.254 1.3628-5.378 16.31-7.078 24.332-10.867l2.1966-0.87866" fill="none" stroke="#000" stroke-width="3"/>
  <path d="m82.667 482.76c-2.5505-10.135 0.85461-15.803 5.3333-20.667" fill="none" stroke="#000" stroke-width="3"/>
  <path d="m64 481.43-16.667-16c-0.61891 7.1136 0.55515 14.628-3.3119 21.015-1.4945 2.5795 8.5973 0.85392 4.795 7.6683 0.23761 10.3-12.17 6.0847-9.4831-2.6836-8.8287-11.158 2.7884-22.799 1.75-34.333 5.2846-12.196 16.217 10.64 24.917 6.3334" fill="none" stroke="#000" stroke-width="3"/>
  <path d="m74.667 477.43c-13.897-8.7874-11.828-27.497-7.7284-41.069 0.58305-5.825 7.7896-8.0965 7.3869-14.309 3.0289-9.5512 0.47836-19.508 0.34152-29.289-6.6964 11.87-26.182 8.505-27.333-5.4166 2.3946-8.5214 8.0514-17.846 16.206-20.961 10.428-3.9837 17.654-13.846 30.395-11.289 5.876-1.5924 5.4153-4.7771 1.6796-8.7847-4.1567-4.339-1.2746-10.58-1.7431-15.916-0.3852-10.961 14.926-15.569 23.467-12.048 9.4492 1.366 10.264 11.149 8.4274 18.594-0.49278 5.1424-0.70233 10.385-4.3793 14.404-2.9543 3.4215-6.5704 11.332 0.91974 11.529 9.3313 3.196 17.663 10.593 19.694 20.556 9.7888-10.839 23.682-2.2945 34.417-9.1028 11.739 0.14295 7.5465 21.738-3.8935 17.569-4.7923 0.6138-11.224-2.8008-13.997 2.6304-10.333 9.236-29.257 5.8247-34.236-7.4917-1.5902-12.807-1.0442-3.5497-4.2902-0.93825" fill="none" stroke="#000" stroke-width="3"/>
  <path d="m154.86 320.67 21.714 23.143c6.0469 7.096 12.695 13.591 12.857 26.571-0.41117 10.591 0.54744 21.593-7.1429 30l-9.7143 8.2857-18 13.429-7.7143 6.8572-0.57143-8.5714 7.1429-8.2857 18.286-10.286 5.1428-10.286 4-21.143c0.64657-7.7118-6.726-14.421-11.714-21.429l-12.857-13.143-3.1428-6.8571 0.28571-5.7143 1.4286-2.5714z" fill="#826446" fill-rule="evenodd"/>
  <path d="m153.33 323.43-42 46c11.687 18.801 24.001 37.262 34.667 56.667 1.4617-12.591 12.733-17.883 22.617-22.5 11.154-7.1897 9.7563-21.277 12.497-32.375-0.54657-12.583-10.285-20.44-18.647-28.609-1.6571-1.6189-3.2602-3.2501-4.727-4.9328-2.9963-4.0727-4.9943-9.126-4.4062-14.25z" fill="none" stroke="#000" stroke-width="3"/>
  <path d="m104.17 368.93c33.111 0.88889 64.056 1.6111 97.167 2.5" fill="none" stroke="#000" stroke-width="3"/>
  <path d="m198.67 364.76-0.66667 12.667 15.333-5.3334-14.667-7.3333z" fill="#826445" fill-rule="evenodd" stroke="#000" stroke-width="3"/>
  <path d="m72.667 426.76c10.503 9.0182 25.74 8.6375 37.333 2" fill="none" stroke="#000" stroke-width="3"/>
  <path d="m154.17 320.26c7.8962 7.5999 15.848 18.013 24.415 25.927 11.675 10.659 12.524 29.055 8.9855 43.538-3.217 14.548-17.741 20.338-28.402 28.545-4.3881 3.0526-9.2762 9.6052-12.998 10.491" fill="none" stroke="#000" stroke-width="3"/>
  <path d="m75.667 389.59c3.7525 0.69196 13.905-8.1827 17-8.8333l4.6667-1.3333h6.6667c2.665-3.5556-3.0782-9.4864 0-11.333l3.3333-2c7.2026-4.3216-10.222-4.5918-15.333-1.3333-2.8323 3.8344-8.6106 3.543-14.667 5.3333-18.612 5.5021-22.669 11.2-23.333 14.667" fill="none" stroke="#000" stroke-width="3"/>
 </g>
</svg>
